<svg width="24" height="24" viewBox="0 0 24 24" fill="none" xmlns="http://www.w3.org/2000/svg">
<path d="M15.6798 3.96C16.1598 4.67 16.4398 5.52 16.4398 6.44C16.4298 8.84 14.5398 10.79 12.1598 10.87C12.0598 10.86 11.9398 10.86 11.8298 10.87C9.6198 10.8 7.82981 9.11 7.58981 6.95C7.29981 4.38 9.4098 2 11.9898 2M6.9898 14.56C4.5698 16.18 4.5698 18.82 6.9898 20.43C9.7398 22.27 14.2498 22.27 16.9998 20.43C19.4198 18.81 19.4198 16.17 16.9998 14.56C14.2698 12.73 9.7598 12.73 6.9898 14.56Z" stroke="white" stroke-opacity="0.5" stroke-width="1.5" stroke-linecap="round" stroke-linejoin="round"/>
</svg>
